<svg xmlns="http://www.w3.org/2000/svg" xmlns:xlink="http://www.w3.org/1999/xlink" viewBox="0 0 1200 1000" id="business-contract">
  <defs>
    <symbol id="a" viewBox="0 0 676.719 520.3">
      <polygon fill="#f5f8fc" points="524.526 2.529 338.518 .004 338.518 0 338.36 .002 338.202 0 338.202 .004 152.193 2.529 0 520.3 338.202 520.3 338.518 520.3 676.719 520.3 524.526 2.529"></polygon>
    </symbol>
    <symbol id="d" viewBox="0 0 236.666 213.5">
      <path fill="#f2f2f2" d="m227.56244,0H37.56244c9.48975,53.0274,10.22168,110.25128,4.77997,170.43329-13.59924-1.09595-27.5174-2.56378-41.77997-4.43329-.96497,31.21606,9.03503,46.88275,30,47h179.7919c9.90472,0,18.24527-7.40535,19.43681-17.23814,8.66352-71.49301,9.2817-137.64977-2.22871-195.76186Z"></path>
      <path d="M30.55991 213.50002c-8.52148-.04785-15.35645-2.67871-20.31348-7.82031C2.90952 198.07033-.51626 184.71486.06284 165.98439l.01758-.55176.54785.07129c70.57812 9.25195 134.97363 9.25195 196.86035.00195l.54785-.08203.02539.55273c.52344 11.18555 4.10742 22.34082 10.0918 31.40918l-.83398.55078c-5.98438-9.06738-9.60645-20.18359-10.22852-31.36035-61.65234 9.1582-125.78809 9.1582-196.04492-.00879-.4873 18.16016 2.84961 31.08398 9.91992 38.41797 4.76367 4.94043 11.35742 7.46875 19.59961 7.51465l-.00586 1ZM236.1351 111.93068l-.99805-.06055c3.0332-49.4668-7.95508-110.17285-8.06641-110.78027l.98438-.17969c.11133.6084 11.12109 61.43359 8.08008 111.02051Z"></path>
      <circle cx="85.062" cy="60.5" r="15.5" fill="#f90065"></circle>
      <circle cx="85.062" cy="60.5" r="9.564" fill="#ffcc83"></circle>
      <rect width="37" height="3.478" x="172.562" y="56" fill="#b8c2d8"></rect>
      <rect width="37" height="3.478" x="172.562" y="62.261" fill="#b8c2d8"></rect>
      <rect width="37" height="3.478" x="172.562" y="68.522" fill="#b8c2d8"></rect>
      <rect width="134" height="4" x="75.562" y="89" fill="#b8c2d8"></rect>
      <rect width="134" height="4" x="75.562" y="98" fill="#b8c2d8"></rect>
      <rect width="134" height="4" x="75.562" y="107" fill="#b8c2d8"></rect>
      <rect width="134" height="4" x="75.562" y="116" fill="#b8c2d8"></rect>
      <rect width="134" height="4" x="75.562" y="125" fill="#b8c2d8"></rect>
      <path d="M92.68686 159.43557c-2.54199 0-4.96582-.8457-6.93457-2.43164-.32031.12695-.64746.24414-.97949.35156-4.41602 1.41504-9.08789.75586-12.82031-1.8125l.56641-.82422c3.47559 2.3916 7.83008 3.00391 11.94824 1.68457.14941-.04785.29688-.09863.44336-.15039-.2998-.2959-.58594-.61133-.85645-.94629-2.96875-3.66309-3.41797-8.57715-1.17383-12.8252 1.53613-2.82227 4.90527-5.19629 8.12207-4.04297 1.4668.54785 2.58105 1.62793 3.22949 3.12598.87207 2.01758.83594 4.65332-.0957 6.87988-1.29004 3.56836-3.91602 6.44141-7.34961 8.10547 2.49414 1.8291 5.65918 2.38281 8.87988 1.46582 2.94727-.92773 5.34863-3.44141 6.32715-6.3623-.44629-.05664-.87793-.19043-1.29395-.40234-.84277-.45215-1.44824-1.30762-1.59082-2.23828-.12109-.79102.11133-1.53125.65234-2.08496.72656-.74219 1.9082-.88672 2.74609-.33496.8457.55469.95996 1.43848.95996 2.23047 0 .59277-.05469 1.18164-.15918 1.75977.38086-.09277.77832-.25 1.19336-.46973 1.80469-.95898 3.95215-.96387 5.74512-.01367 5.85156 3.09473 13.5791 1.9541 17.97363-2.65625l.72461.68945c-4.69434 4.9248-12.93652 6.14648-19.16602 2.85059-1.47754-.78223-3.31934-.77539-4.80859.0127-.65918.35059-1.29883.56641-1.91406.64941-.98926 3.37598-3.67676 6.25-7.10254 7.32715-1.09277.31152-2.19043.46289-3.2666.46289Zm-3.36719-20.28809c-2.20605 0-4.43359 1.74121-5.55762 3.80664-2.05176 3.88184-1.64355 8.37598 1.06836 11.72266.34375.42383.71094.81348 1.09766 1.16895 3.40723-1.5166 6.0166-4.28027 7.27734-7.76465.82617-1.97656.86523-4.37012.1084-6.11914-.5459-1.26074-1.43848-2.12988-2.6543-2.58398-.43945-.15723-.88867-.23047-1.33984-.23047Zm12.04004 8.10742c-.31934 0-.64453.12793-.88379.37305-.40527.41406-.42969.89941-.37793 1.2334.09375.61719.51172 1.20703 1.06445 1.50391.35156.17871.71777.28223 1.10059.3125.13379-.61035.2041-1.23145.2041-1.85449 0-.65527-.08496-1.11719-.50879-1.39453-.17773-.11719-.38672-.17383-.59863-.17383ZM178.65561 160.50002h-.14648c-1.53711-.00586-2.46484-1.10938-2.70215-2.19922-.27832-1.27539.3252-2.49805 1.5-3.04199 2.08594-.96484 4.29395-1.62891 6.54102-1.97656-1.0957-.51855-2.22266-1.13477-3.12402-2.00684-1.07324-1.03906-2.02637-2.78125-1.48438-4.55859.41602-1.3623 1.68262-2.49023 3.38965-3.01562 1.46484-.45312 3.0498-.43848 4.4502-.42285l15.75488.15137c1.54199.01465 3.22559.20312 4.0127 1.4873.75781 1.23535.27539 2.84668-1.35742 4.53906-1.24609 1.29102-2.60742 2.4834-4.06445 3.57129.95215-.14258 1.92188-.23047 2.90234-.14746 1.58008.13672 3.12012.90918 4.01758 2.01562.61523.75879.88281 1.62207.77539 2.49805l-.99219-.12109c.07422-.60938-.11426-1.19629-.55957-1.74707-.72168-.88965-2.02734-1.53711-3.32715-1.64941-1.34082-.11523-2.66016.12402-4.05762.37891-.2334.04199-.46875.08496-.70605.12598-6.03418 3.90625-13.39941 6.11914-20.82227 6.11914Zm8.85742-6.50098c-3.34375 0-6.7041.74219-9.78613 2.16797-.91309.42188-1.07812 1.29883-.94336 1.9209.1416.64844.67969 1.4082 1.72949 1.41211h.14355c6.48145 0 12.91504-1.73047 18.4082-4.82617-1.74316.08203-3.47754-.12695-5.16113-.33008-1.05859-.12695-2.15234-.25879-3.22168-.31445-.38965-.01953-.7793-.03027-1.16895-.03027Zm.00098-1c.40625 0 .81348.01074 1.21973.03223 1.10352.05664 2.21484.19043 3.28906.32031 1.83105.2207 3.72754.44824 5.56445.28418.50391-.04492 1.01465-.12012 1.52148-.20605 2.06934-1.35742 3.97559-2.92188 5.66211-4.66895.74414-.77148 1.89355-2.22852 1.22363-3.32031-.53223-.86914-1.90137-.99902-3.16992-1.01074l-15.75488-.15137c-1.39258-.01465-2.82812-.0293-4.14551.37793-1.36914.42188-2.41406 1.32324-2.72754 2.35156-.33887 1.10938.1416 2.50195 1.22266 3.54883 1.04785 1.01367 2.45508 1.64844 3.81641 2.26172l-.13672.30371c.80371-.08203 1.60938-.12305 2.41504-.12305ZM89.34907 32.1748c-4.3252 0-7.5376-3.33838-7.5376-7.55859v-.04199c0-4.17822 3.14941-7.60059 7.66357-7.60059 2.77148 0 4.43018.92383 5.79492 2.26758l-2.05762 2.37256c-1.13379-1.02881-2.28857-1.65869-3.7583-1.65869-2.47754 0-4.26221 2.05762-4.26221 4.57715v.04199c0 2.51953 1.74268 4.61914 4.26221 4.61914 1.67969 0 2.7085-.67188 3.86328-1.72168l2.05761 2.07861c-1.51171 1.6167-3.1914 2.62451-6.02587 2.62451ZM104.67914 32.1748c-4.53516 0-7.78955-3.38037-7.78955-7.55859v-.04199c0-4.17822 3.29639-7.60059 7.83154-7.60059s7.78955 3.38037 7.78955 7.55859v.04199c0 4.17822-3.29639 7.60059-7.83154 7.60059Zm4.45117-7.60059c0-2.51953-1.84766-4.61914-4.45117-4.61914s-4.40918 2.05762-4.40918 4.57715v.04199c0 2.51953 1.84766 4.61914 4.45117 4.61914s4.40918-2.05762 4.40918-4.57715v-.04199ZM125.69916 31.92285l-7.11768-9.34326v9.34326h-3.19141v-14.69727h2.98145l6.88672 9.04932v-9.04932h3.19141v14.69727h-2.75049ZM138.63569 20.20703v11.71582h-3.2334v-11.71582h-4.47217v-2.98145h12.17773v2.98145h-4.47217ZM154.51118 31.92285l-3.14941-4.70312h-2.54053v4.70312h-3.2334v-14.69727h6.71875c3.46436 0 5.54297 1.82666 5.54297 4.8501v.04199c0 2.37256-1.28076 3.86328-3.14941 4.55615l3.59033 5.24902h-3.7793Zm.06299-9.6792c0-1.38574-.96582-2.09961-2.54053-2.09961h-3.2124v4.22021h3.27539c1.57471 0 2.47754-.83984 2.47754-2.07861v-.04199ZM171.70991 31.92285l-1.34375-3.29639h-6.21484l-1.34375 3.29639h-3.29639l6.29883-14.80225h2.98145l6.29883 14.80225h-3.38037Zm-4.45117-10.91797-1.95264 4.76611h3.90527l-1.95264-4.76611ZM183.30219 32.1748c-4.3252 0-7.5376-3.33838-7.5376-7.55859v-.04199c0-4.17822 3.14941-7.60059 7.66357-7.60059 2.77148 0 4.43018.92383 5.79492 2.26758l-2.05762 2.37256c-1.13379-1.02881-2.28857-1.65869-3.7583-1.65869-2.47754 0-4.26221 2.05762-4.26221 4.57715v.04199c0 2.51953 1.74268 4.61914 4.26221 4.61914 1.67969 0 2.7085-.67188 3.86328-1.72168l2.05762 2.07861c-1.51172 1.6167-3.19141 2.62451-6.02588 2.62451ZM198.56928 20.20703v11.71582h-3.2334v-11.71582h-4.47217v-2.98145h12.17773v2.98145h-4.47217Z"></path>
    </symbol>
    <symbol id="b" viewBox="0 0 615.919 788.5">
      <path fill="#ff9996" d="m358.49057,522l-77.64043,157.98925c-4.82727,9.82293-.35059,20.0249,7.14372,28.0016,23.49672,25.00915,59.92011,51.43556,68.49672,55.00915,12,5,15,7,12,13s-1,4-19,4-65-6-65-6c0,0-61.24481-18-73.6224-30.5,0,0-14.3776-4.5-9.3776-24.5s23-196,23-196l134-1Z"></path>
      <path fill="#f90065" d="m242.99057,749.7102s95.5,14.2898,89.5-2.7102c0,0,35,17,41,23,8.71448,8.71448,2.41299,14-9.91115,14h-173.97727l53.38842-34.2898Z"></path>
      <path fill="#ff9996" d="m109.49057,519l135,4-32,180s42.67719,57.39936,74.61674,65.27398c2.60541.64236,4.06975,3.42632,3.01498,5.89376-1.09098,2.55215-3.89065,5.38774-10.63172,6.83226-11.43977,2.45138-60.84355-6.1065-91.33139-7.48977-6.7123-.30454-13.01147-3.24605-17.61122-8.14402-4.4201-4.70666-32.26624-17.23682-37.05739-19.36622-9-4-29-6-28-23s-2-15,5-43c2.92052-11.68206-1-161-1-161Z"></path>
      <path fill="#ffcc83" d="m285.29106,21.05383S290.54316,0,252.49057,0c-33,0-44,26-37.78271,72.14351,5.18962,38.51632,70.5832-51.08968,70.5832-51.08968Z"></path>
      <path fill="#ffcc83" d="m281.80509,10.79418s7.68547,13.20582,4.68547,29.20582c-3,16,21.19982,16.25479,26.09991,31.6274,4.90009,15.3726-1.09991,28.3726-12.09991,35.3726s-67.36161-38.09764-67.36161-38.09764l48.67613-58.10818Z"></path>
      <path fill="#ff9996" d="m614.49057,310l-53,31-78.5946-34.5c-37.4054-22.5-13.4054-71.5,24.5946-54.5l98,37c3.32192,1.67678,11.57212,18.31096,9,21Z"></path>
      <path fill="#112e5b" d="m381.49057,272l-68-60c-59.12103-44.36121-45.66876-126.95758-4-102l116,102c47,41-9,93-44,60Z"></path>
      <path fill="#ff9996" d="m571.55314,345.09649h.00001c3.21848-4.38886,2.0699-10.58276-2.50819-13.52582l-11.29111-7.25857c-4.50976-2.89913-10.5257-1.46598-13.24396,3.15506l-.24756.42086c-2.63785,4.48435-1.15104,10.25758,3.32476,12.90991l11.53867,6.83773c4.17889,2.47638,9.55483,1.37797,12.42739-2.53917Z"></path>
      <path d="m563.94976,349.50016c-1.7373,0-3.49512-.45605-5.09668-1.40527l-11.53809-6.83789c-4.7168-2.79492-6.29297-8.91309-3.5127-13.63965l.24805-.42188c1.38867-2.36035,3.62012-4.00977,6.28516-4.64551,2.66406-.63184,5.40137-.16797,7.70703,1.3125l11.29102,7.25879c2.33887,1.50391,3.90723,3.83887,4.41406,6.57324s-.11914,5.47559-1.76367,7.71777h0c-1.94922,2.65723-4.95898,4.08789-8.03418,4.08789Zm-11.2793-26.1582c-.69336,0-1.39355.08203-2.08789.24707-2.37891.56738-4.37207,2.04004-5.6123,4.14844l-.24805.42188c-2.48242,4.21973-1.0752,9.68359,3.1377,12.17969l11.53809,6.83789c3.96191,2.3457,9.00195,1.31738,11.72461-2.39551,1.46875-2.00293,2.02832-4.4502,1.5752-6.89258-.45312-2.44141-1.85254-4.52637-3.94238-5.86914l-11.29102-7.25879c-1.45703-.93652-3.1084-1.41895-4.79395-1.41895Z"></path>
      <path fill="#ff9996" d="m588.55314,337.09649h.00001c3.21848-4.38886,2.0699-10.58276-2.50819-13.52582l-11.29111-7.25857c-4.50976-2.89913-10.5257-1.46598-13.24396,3.15506l-.24756.42086c-2.63785,4.48435-1.15104,10.25758,3.32476,12.90991l11.53867,6.83773c4.17889,2.47638,9.55483,1.37797,12.42739-2.53917Z"></path>
      <path d="m580.94976,341.50016c-1.7373,0-3.49512-.45605-5.09668-1.40527l-11.53809-6.83789c-4.7168-2.79492-6.29297-8.91309-3.5127-13.63965l.24805-.42188c1.38867-2.36035,3.62012-4.00977,6.28516-4.64551,2.66406-.63281,5.40234-.16797,7.70703,1.3125l11.29102,7.25879c2.33887,1.50391,3.90723,3.83887,4.41406,6.57324s-.11914,5.47559-1.76367,7.71777h0c-1.94922,2.65723-4.95898,4.08789-8.03418,4.08789Zm-11.2793-26.1582c-.69336,0-1.39355.08203-2.08789.24707-2.37891.56738-4.37207,2.04004-5.6123,4.14844l-.24805.42188c-2.48242,4.21973-1.0752,9.68359,3.1377,12.17969l11.53809,6.83789c3.96094,2.34668,9.00098,1.31738,11.72461-2.39551,1.46875-2.00293,2.02832-4.4502,1.5752-6.89258-.45312-2.44141-1.85254-4.52637-3.94238-5.86914l-11.29102-7.25879c-1.45703-.93652-3.1084-1.41895-4.79395-1.41895Z"></path>
      <path fill="#ff9996" d="m600.55314,327.09649h.00001c3.21848-4.38886,2.0699-10.58276-2.50819-13.52582l-11.29111-7.25857c-4.50976-2.89913-10.5257-1.46598-13.24396,3.15506l-.24756.42086c-2.63785,4.48435-1.15104,10.25758,3.32476,12.90991l11.53867,6.83773c4.17889,2.47638,9.55483,1.37797,12.42739-2.53917Z"></path>
      <path d="m592.94976,331.50016c-1.7373,0-3.49512-.45605-5.09668-1.40527l-11.53809-6.83789c-4.7168-2.79492-6.29297-8.91309-3.5127-13.63965l.24805-.42188c1.38867-2.36035,3.62012-4.00977,6.28516-4.64551,2.66406-.63086,5.40137-.16797,7.70703,1.3125l11.29102,7.25879c2.33887,1.50391,3.90723,3.83887,4.41406,6.57324s-.11914,5.47559-1.76367,7.71777h0c-1.94922,2.65723-4.95898,4.08789-8.03418,4.08789Zm-11.2793-26.1582c-.69336,0-1.39355.08203-2.08789.24707-2.37891.56738-4.37207,2.04004-5.6123,4.14844l-.24805.42188c-2.48242,4.21973-1.0752,9.68359,3.1377,12.17969l11.53809,6.83789c3.96094,2.3457,9.00195,1.31738,11.72461-2.39551,1.46875-2.00293,2.02832-4.4502,1.5752-6.89258-.45312-2.44141-1.85254-4.52637-3.94238-5.86914l-11.29102-7.25879c-1.45703-.93652-3.1084-1.41895-4.79395-1.41895Z"></path>
      <path fill="#ff9996" d="m613.55314,316.09649h.00001c3.21848-4.38886,2.0699-10.58276-2.50819-13.52582l-11.29111-7.25857c-4.50976-2.89913-10.5257-1.46598-13.24396,3.15506l-.24756.42086c-2.63785,4.48435-1.15104,10.25758,3.32476,12.90991l11.53867,6.83773c4.17889,2.47638,9.55483,1.37797,12.42739-2.53917Z"></path>
      <path d="m605.94976,320.50016c-1.7373,0-3.49512-.45605-5.09668-1.40527l-11.53809-6.83789c-4.7168-2.79492-6.29297-8.91309-3.5127-13.63965l.24805-.42188c1.38867-2.36035,3.62012-4.00977,6.28516-4.64551,2.66504-.63184,5.40137-.16797,7.70703,1.3125l11.29102,7.25879c2.33887,1.50391,3.90723,3.83887,4.41406,6.57324s-.11914,5.47559-1.76367,7.71777h0c-1.94922,2.65723-4.95898,4.08789-8.03418,4.08789Zm-11.2793-26.1582c-.69336,0-1.39355.08203-2.08789.24707-2.37891.56738-4.37207,2.04004-5.6123,4.14844l-.24805.42188c-2.48242,4.21973-1.0752,9.68359,3.1377,12.17969l11.53809,6.83789c3.96191,2.34668,9.00195,1.31738,11.72461-2.39551,1.46875-2.00293,2.02832-4.4502,1.5752-6.89258-.45312-2.44141-1.85254-4.52637-3.94238-5.86914l-11.29102-7.25879c-1.45703-.93652-3.1084-1.41895-4.79395-1.41895Z"></path>
      <path fill="#ff9996" d="m507.49057,252l38.49477-2.67035c2.92343-.21391,5.83681.53196,8.29779,2.12436l26.80683,17.3456c2.13548,1.38178,3.68183,3.50342,4.3306,5.96283,1.46574,5.55648,4.51513,15.68268,8.07001,19.23756,5,5,0,16-12,13s-29.03764-21.59779-29.03764-21.59779c0,0-33.96236,22.59779-56.96236,5.59779l12-39Z"></path>
      <path d="m585.41167,308.04606c-1.24121,0-2.5918-.16309-4.05078-.52832-11.27637-2.81836-26.57422-18.83008-28.99609-21.4248-2.05957,1.30176-12.14453,7.41113-24.26855,10.26562l-.24414-1.03906c13.34961-3.14258,24.19727-10.29004,24.30469-10.36133l.38086-.25293.30859.33691c.16895.18457,17.06836,18.51367,28.77441,21.44043,6.45508,1.61523,10.5625-1.00293,12.25195-3.98828,1.59082-2.80957,1.28613-6.07129-.75977-8.11621-3.62793-3.62891-6.7002-13.76172-8.20898-19.47949-.61328-2.32812-2.07031-4.33496-4.10352-5.65039l.58008-.89648c2.25684,1.46094,3.875,3.68945,4.55664,6.27539,1.48047,5.6123,4.48047,15.54492,7.93164,18.99512,2.38867,2.38867,2.76367,6.16602.93359,9.39844-1.49414,2.6377-4.64453,5.02539-9.39062,5.02539Z"></path>
      <path fill="#f90065" d="m364.37688,458.00065c-.02997,5.91992-.21997,11.62-.50995,17-.31,6.10999-.76001,11.82007-1.26001,17-.63,6.59998-1.34003,12.34998-2,17-1.16003,8.19995-2.14001,12.98999-2.14001,12.98999-46.02002,2.97998-252.97998,0-252.97998,0v-180.98999l232.91998-23.12s5.72998,9.15002,12.71997,38.12c1.22003,5.05005,2.48004,10.68994,3.75,17,1.05005,5.19995,2.11005,10.85999,3.16003,17,.90997,5.30005,1.82001,10.95996,2.71997,17,.25,1.64001.48999,3.31006.73004,5,.57001,4.02002,1.04999,8.02002,1.42999,12,.57001,5.75.95001,11.42993,1.17999,17,.25,5.82007.33002,11.51001.27997,17Z"></path>
      <path fill="#f2f2f2" d="M354.87688 373.00065H105.48693v-17h245.63995c1.22003 5.05005 2.48004 10.68994 3.75 17ZM360.75688 407.00065H105.48693v-17h252.54999c.90997 5.30005 1.82001 10.95996 2.71997 17ZM364.09691 441.00065H105.48693v-17h257.42999c.57001 5.75.95001 11.42993 1.17999 17ZM364.37688 458.00065c-.02997 5.91992-.21997 11.62-.50995 17H105.48693v-17h258.88995ZM362.60692 492.00065c-.63 6.59998-1.34003 12.34998-2 17H105.48693v-17h257.12Z"></path>
      <path fill="#f90065" d="m342.48693,326.00065l-237,15,33.03998-248.03003,69.97998-20.33997,59.28003,12.68005,39.32001,23.42993,2.04999,1.21997s.95001,5.64001,2.52997,15.14001c.74005,4.43005,1.62006,9.70007,2.60004,15.63.84998,5.17004,1.78998,10.84009,2.78998,16.89001.79999,4.92004,1.65002,10.09998,2.52002,15.47009.89996,5.47998,1.82001,11.15991,2.76001,16.95996.81,5.02002,1.63995,10.12988,2.45996,15.29993.91003,5.63,1.81,11.32996,2.72003,17.03003.79999,5.05994,1.59998,10.12,2.39001,15.15002.89996,5.78003,1.78998,11.51001,2.65997,17.12,4.70001,30.66003,8.60999,57.83997,9.90002,71.34998Z"></path>
      <path fill="#f2f2f2" d="M311.68688 125.10063c-22.28998 5.89001-45.31 8.81995-68.37 8.81995-36.15997 0-72.39996-7.21997-106.02997-21.60986l6.69-15.63013c51.52997 22.05005 109.57001 26.13013 163.13 12.06006l2.04999 1.21997s.95001 5.64001 2.52997 15.14001ZM317.07689 157.62065c-23.95996 6.87-48.83997 10.29993-73.76001 10.29993-36.15997 0-72.39996-7.21997-106.02997-21.60986l6.69-15.63013c53.83997 23.04004 114.78998 26.46008 170.31 10.05005.84998 5.17004 1.78998 10.84009 2.78998 16.89001ZM322.35692 190.0507c-25.58002 7.91992-52.29004 11.86987-79.04004 11.86987-36.15997 0-72.39996-7.21997-106.02997-21.60986l6.69-15.63013c55.56 23.78003 118.70001 26.65015 175.62 8.41016.89996 5.47998 1.82001 11.15991 2.76001 16.95996Z"></path>
      <path fill="#f2f2f2" d="m327.53691,222.38066c-27.15002,9.03992-55.66003,13.53992-84.22003,13.53992-36.15997,0-72.39996-7.21997-106.02997-21.60986l6.69-15.63013c57.26996,24.51001,122.58002,26.81006,180.83997,6.67004.91003,5.63,1.81,11.32996,2.72003,17.03003Z"></path>
      <path fill="#f2f2f2" d="m332.5869,254.65068c-28.65002,10.19006-58.92999,15.2699-89.27002,15.2699-36.15997,0-72.39996-7.21997-106.02997-21.60986l6.69-15.63013c58.95001,25.2301,126.41998,26.93005,185.95001,4.8501.89996,5.78003,1.78998,11.51001,2.65997,17.12Z"></path>
      <path fill="#ff9996" d="m491.8969,311.50065l-34.70001-11.08997-60.70996-19.41003c-55-21-16-89,29-69l59.37006,28.72998,33.62988,16.27002c34,14,22,71-26.58997,54.5Z"></path>
      <path fill="#112e5b" d="m484.85698,240.73063l-27.6601,59.68005-60.70996-19.41003c-55-21-16-89,29-69l59.37006,28.72998Z"></path>
      <path fill="#ff9996" d="m253.48693,105.00065c-32.14001-5.83008-53-30-53-30,0,0,21-10,37-33l5.58997,5.85999,15.41003,16.14001,7.71997,17.67993,1.58002,3.63013s17.84998,25.52002-14.29999,19.68994Z"></path>
      <path d="m266.2069,81.68058c-.96997.09009-2.10999.02002-3.44-.26001-20.20996-4.22998-28.27997-31.41992-28.27997-31.41992l8.58997-2.14001,15.41003,16.14001,7.71997,17.67993Z"></path>
      <path fill="#112e5b" d="M262.76871 81.41619s19.78712 34.08381 22.72186 107.58381-2.75 169.55469-2.75 169.55469c0 0 76.70329 2.74031 75.72664-12.40719s-48.97664-236.1475-48.97664-236.1475l-28-20-20-18 1.27814 9.41619ZM214.49057 62s24.65752 14.58649 31 78-4.5 217.5-4.5 217.5c0 0-147.5 7.5-141.5-17.5s39.43009-168.60726 39.43009-168.60726l-.39432-78.41822 61.96422-17.97452 14-13Z"></path>
      <path fill="#ff9996" d="m224.23106,22.75191c3.00618-2.18345,6.82167-2.55249,10.33026-1.36731,7.86419-13.9713,21.3498-18.80134,34.00918-13.16278,13.70408,6.10387,21.2448,22.15501,13.78448,38.9045-7.4603,16.74944-15.19747,29.5751-28.90159,23.4712-7.67402-3.41805-15.58925-12.04803-19.76141-21.92131-4.45014-1.86434-8.9314-5.29377-11.23783-8.46926-4.24478-5.84429-3.44928-13.65919,1.77692-17.45504Z"></path>
      <path d="m223.53862,33.11247l-.69727-.80859c2.85254-2.45996,6.48145-4.09375,10.2168-4.59961l.14258,1.05859c-3.53223.47754-6.96387,2.02246-9.66211,4.34961Z"></path>
      <path fill="#fff" d="m226.94897,30.17162l-.0469,5.06918"></path>
      <polygon points="227.436 35.245 226.368 35.236 226.415 30.167 227.483 30.177 227.436 35.245"></polygon>
      <ellipse cx="258.619" cy="35.02" rx="2.368" ry="1.698" transform="rotate(-65.992 258.619 35.02)"></ellipse>
      <ellipse cx="274.961" cy="41.677" rx="2.368" ry="1.698" transform="rotate(-65.992 274.961 41.677)"></ellipse>
      <path d="M269.59624 52.61931c-2.3623-2.35352-3.71875-5.61719-3.7207-8.95215s1.34961-6.59961 3.70898-8.95801l.75391.75586c-2.15918 2.1582-3.39648 5.14746-3.39453 8.20215.00195 3.05273 1.24316 6.04102 3.40625 8.19629l-.75391.75586ZM260.07964 72.67692c-2.17188 0-4.46875-.53418-6.84277-1.5918-7.9209-3.52734-15.7334-12.14941-19.95215-22.00195-4.3916-1.88574-8.89746-5.30566-11.2627-8.5625-4.41113-6.07324-3.56055-14.23828 1.89551-18.2002 2.93066-2.12891 6.69727-2.69336 10.39355-1.57617 7.91797-13.72363 21.40918-18.83301 34.47656-13.00977l-.43359.97461c-12.65137-5.63184-25.73145-.55664-33.32812 12.9375l-.2168.38574-.41895-.1416c-3.49609-1.18066-7.08594-.71094-9.8457 1.29297-4.97949 3.61621-5.72363 11.1123-1.65918 16.70996 2.29688 3.16113 6.72266 6.49219 11.0127 8.29004l.20117.08398.08496.2002c4.03516 9.55078 11.86621 18.24805 19.48633 21.64258 2.59375 1.15527 5.07227 1.64355 7.36426 1.45996l.08594 1.06445c-.34375.02734-.69043.04199-1.04102.04199Z"></path>
      <path fill="#112e5b" d="m123.49057,105L9.64477,241.80444c-29.15421,46.19556,38.84579,118.19556,100.10233,43.00705l90.19528-124.64249c34.54819-44.16901-44.45181-97.16901-76.45181-55.16901Z"></path>
      <polygon points="158.421 217.817 157.561 217.184 204.561 153.184 205.421 153.817 158.421 217.817"></polygon>
      <polygon points="330.464 241.589 309.464 116.589 310.517 116.411 331.517 241.411 330.464 241.589"></polygon>
      <polygon points="294.9 246.663 293.832 246.644 295.954 133.152 284.15 115.344 293.344 119.538 284.749 99.089 285.733 98.675 295.387 121.644 287.101 117.863 297.028 132.839 297.025 133.005 294.9 246.663"></polygon>
      <path d="m253.50378,345.01567l82.3671,15.1587c5.64993,1.0398,11.38628-2.69494,12.8125-8.34178l31.58298-125.04708c1.42622-5.64684-1.99778-11.06744-7.64772-12.10724l-82.3671-15.1587c-5.64993-1.0398-11.38628,2.69494-12.8125,8.34178l-31.58298,125.04708c-1.42622,5.64684,1.99778,11.06744,7.64772,12.10724Z"></path>
      <path fill="#f2f2f2" d="m256.88835,345.63856l82.53013,15.18871c5.60491,1.03152,11.29555-2.67346,12.71041-8.27531l31.04084-122.90056c1.41485-5.60185-1.98186-10.97925-7.58678-12.01077l-82.53013-15.18871c-5.60491-1.03152-11.29555,2.67346-12.71041,8.27531l-31.04084,122.90056c-1.41485,5.60185,1.98186,10.97925,7.58678,12.01077Z"></path>
      <path fill="#b8c2d8" d="m357.8121,245.78866l7.16762,1.31912c2.80639.51648,5.6557-1.33861,6.36412-4.14346l3.26757-12.93735c.70842-2.80485-.99232-5.49733-3.79871-6.01381l-7.16762-1.31912c-2.80639-.51648-5.6557,1.33861-6.36412,4.14346l-3.26757,12.93735c-.70842,2.80485.99232,5.49733,3.79871,6.01381Z"></path>
      <ellipse cx="365.625" cy="229.705" rx="4.276" ry="4" transform="rotate(-38.614 365.625 229.705)"></ellipse>
      <ellipse cx="363" cy="240.097" fill="#fff" rx="3.054" ry="2.857" transform="rotate(-38.614 363 240.097)"></ellipse>
      <ellipse cx="364.167" cy="235.478" rx=".611" ry=".571" transform="rotate(-38.614 364.167 235.478)"></ellipse>
      <polygon fill="#21201f" points="354.954 349.908 353.979 349.68 367.74 290.925 368.714 291.153 354.954 349.908"></polygon>
      <path fill="#ff9996" d="m267.49057,246c-7.88629-1.83472-12.08087-3.09827-22-4-22-2-49,12-49,12-46,14-35,71-10,75,0,0,82,19,95,17s9-20,9-20c8-8,5-18,5-18,9-4,8-17,8-17,7.74359-12.90594-.79315-18.40497-3.32922-19.68994-8.4892,1.68518-30.41974,1.68994-38.67078,1.68994,1-7.00092,4.4223-17.65649,6-27Z"></path>
      <path fill="#ff9996" d="m219.48693,254.00065l-10.67999,79.97998-63.54004-5.76001-112.77997-10.21997c-46-6-47-100,22-94l112.32001,20.41992,52.67999,9.58008Z"></path>
      <path fill="#112e5b" d="m166.80693,244.42057l-21.54004,83.80005-112.77997-10.21997c-46-6-47-100,22-94l112.32001,20.41992Z"></path>
      <polygon points="200.901 251.027 82.901 231.027 83.08 229.974 201.08 249.974 200.901 251.027"></polygon>
      <polygon points="164.947 330.032 55.947 321.032 56.035 319.968 165.035 328.968 164.947 330.032"></polygon>
      <path d="M173.07622 149.17204c-6.94141-17.70898-16.83691-33.9248-29.41162-48.19727l.80078-.70508c12.65723 14.36523 22.61768 30.6875 29.60498 48.51172l-.99414.39062ZM274.91851 273.23845c-6.8457 0-12.42969-.18652-12.94629-.20508l.03711-1.06641c.28906.00977 29.01172.96875 37.33105-1.47852l.30078 1.02344c-4.7959 1.41113-15.82422 1.72656-24.72266 1.72656Z"></path>
      <polygon points="285.327 294.503 285.155 293.448 303.405 290.473 303.577 291.528 285.327 294.503"></polygon>
      <polygon points="283.088 311.026 282.893 309.975 296.393 307.475 296.588 308.526 283.088 311.026"></polygon>
      <polygon points="276.088 329.026 275.893 327.975 289.393 325.475 289.588 326.526 276.088 329.026"></polygon>
      <path d="m259.6353,57.16911c-4.32715-2.11328-7.17383-6.76953-7.08398-11.58496l1.06836.01953c-.08203,4.33984,2.58496,8.70117,6.48438,10.60645l-.46875.95898Z"></path>
      <path fill="#ffcc83" d="m285.29106,21.05383s1.16545,10.41258-15.31753,7.17938c-16.48297-3.2332-23.48297-5.2332-27.48297,2.7668s-8,12-6,29c0,0-16.53197-14.57918,0-45,16.53197-30.42082,53-6,48.8005,6.05383Z"></path>
      <path fill="#f90065" d="m107.49057,693s24,4,55,39c12.66727,14.30176,49,35,59,35,0,0,46.67958-.60883,35-17,0,0,87.97609,37.5,36.48804,37.5h-119.68476s-13.80328-22.5-21.80328-24.5l-16.18441,25.5h-17.85175l-12.27511-47.84031s-12.68873-23.65969,2.31127-47.65969Z"></path>
      <rect width="76" height="1.068" x="204.991" y="786.966"></rect>
      <polygon points="217.517 680.59 216.464 680.41 243.464 522.41 244.517 522.59 217.517 680.59"></polygon>
      <path d="m239.27202 443.15251-.93555-.51367c12.79199-23.27246 27.14258-46.00684 42.65234-67.57227l.86719.62305c-15.48535 21.53125-29.8125 44.22852-42.58398 67.46289ZM298.09233 771.93181c-14.38379-9.8623-41.53613-21.3252-41.80859-21.43945-5.55176-2.52344-26.94238-26.23828-27.84961-27.24609l.79297-.71484c.2207.24512 22.14746 24.55664 27.48438 26.98242.25977.10938 27.51172 11.61328 41.98438 21.53711l-.60352.88086Z"></path>
      <polygon points="232.598 236.715 222.649 127.184 226.19 115.034 215.638 115.034 201.517 81.971 202.498 81.551 216.343 113.966 227.614 113.966 223.731 127.289 233.661 236.619 232.598 236.715"></polygon>
      <path d="m261.648,106.38786c-1.10156,0-2.31543-.06152-3.65332-.20117l.11133-1.0625c10.48633,1.09375,12.83887-2.79297,12.86035-2.83301l.93457.5166c-.08984.16406-2.05957,3.58008-10.25293,3.58008Z"></path>
    </symbol>
    <symbol id="c" viewBox="0 0 483.567 827.963">
      <rect width="56" height="27" x="362.8" y="737.929" fill="#f90065"></rect>
      <rect width="55" height="26" x="232.8" y="725.929" fill="#f90065"></rect>
      <path fill="#f2f2f2" d="m294.80377,812.93118H125.5838c-6.56006,0-11.70007-5.68994-11.02002-12.20996.51001-4.98999,1.82996-9.23999,3.73999-12.86011.17993-.33984.35986-.67993.55994-1.02002,12.04993-20.88989,44.52002-19.84985,52.94006-22.90991,2.04993-.75,4.72998-2.3999,7.71997-4.59009.31006-.22998.62-.45996.92993-.70996,2.54004-1.8999,5.27002-4.15991,8.02002-6.5498.27002-.24023.55005-.47998.82007-.72021,2.26001-1.98975,4.52002-4.0498,6.67993-6.06982.26001-.23999.52002-.48999.78003-.72998,8.15991-7.66016,14.83008-14.62012,14.83008-14.62012l23.21997,5.98999c5.90991,12.34009,39.70996,19.53003,52,6l3.03992-1.38989,1.34998,19.67993.07007,1.07007,2.30005,33.59985.07996,1.07007,1.16003,16.96997Z"></path>
      <path d="m293.64374,795.96121h-142.03003c-19.81995,0-29.12-4.64014-33.30994-8.1001.17993-.33984.35986-.67993.55994-1.02002,3.94006,3.31006,13.02002,8.05005,32.75,8.05005h141.95007l.07996,1.07007Z"></path>
      <path d="M291.26373 761.29128c-9.76001.12988-26.45996 1.87988-37.08008 11.25-6.29993 5.54004-9.65991 13.06006-10.01001 22.34985-.01001.17993-.02002.36011-.02002.55005l-1.06982-.03003c0-.17993.00989-.34985.02991-.52002.34998-9.60986 3.83997-17.3999 10.37-23.15991 10.84009-9.54004 27.78003-11.35986 37.70996-11.51001l.07007 1.07007ZM206.37372 757.09109l-.90002.57007c-2.75-4.41992-5.92993-8.57007-9.5-12.36987.26001-.23999.52002-.48999.78003-.72998 3.62 3.85986 6.83997 8.06006 9.62 12.52979ZM197.63373 758.01126l-.67004.82983c-1.03003-.82983-3.05005-2.43994-5.07996-4.0498-1.20007-.95996-2.41003-1.91016-3.41003-2.70996.27002-.24023.55005-.47998.82007-.72021.96997.78003 2.10986 1.69019 3.26001 2.6001 2.03003 1.60986 4.04993 3.21997 5.07996 4.05005ZM192.6037 765.51126l-.5199.92993-12.56006-7.1001c.31006-.22998.62-.45996.92993-.70996l12.15002 6.88013Z"></path>
      <path fill="#f2f2f2" d="m433.80377,825.93118l-184,2c-.64014-11.8999,2.75-20.17993,8.63989-26.32983.25-.27002.51001-.53027.78003-.78027,12.62-12.35986,35.64001-15.90991,55.58008-23.88989,4.10986-1.63989,7.58997-3.37988,10.52002-5.1499.35986-.22998.70996-.44019,1.04993-.65991,2.34998-1.5,4.31995-3.01025,5.97998-4.52002.27002-.24023.54004-.49023.79004-.72998,1.66003-1.59009,2.96997-3.16016,4.00989-4.67017.21008-.30005.40015-.59985.59009-.88989,4.34009-6.92017,3.06006-12.38013,3.06006-12.38013l24-3c4.37988,12,51.02002,17,54,3h2l5,26c.04993.12012.08997.25.13989.38013.13013.32983.25.65991.36011,1,3.92993,10.97998,5.79993,24.34985,6.69995,34.57983.02002.36011.05005.71997.08008,1.07007.71997,8.75.71997,14.96997.71997,14.96997Z"></path>
      <path d="m433.0838,810.96121h-143.92017c-16.41992,0-26.76001-3.1499-30.71997-9.35986.25-.27002.51001-.53027.78003-.78027.03003.06006.07007.13013.11011.19019,2.57983,4.05005,9.83984,8.87988,29.82983,8.87988h143.84009c.02002.36011.05005.71997.08008,1.07007Z"></path>
      <path d="M426.30377 775.3113c-14.22998 5.79004-34.75 17.07983-36.8501 34.57983-.03003.19019-.05005.39014-.06995.59009l-1.05994-.1001c.0199-.16992.02991-.32983.05994-.48999 2.07996-18.07983 23.07996-29.67993 37.55994-35.57983.13013.32983.25.65991.36011 1ZM351.51373 769.63113l-.6001.89014-13.76001-9.32007c.21008-.30005.40015-.59985.59009-.88989l13.77002 9.31982ZM343.96368 774.0613l-.56995.8999c-3.89001-2.47998-7.58997-5.29004-11.04004-8.35986.27002-.24023.54004-.49023.79004-.72998 3.39001 3.00977 7.00989 5.75977 10.81995 8.18994ZM336.04376 778.16116l-.75.76001c-2.92004-2.88989-6.30005-5.31006-9.96997-7.13989.35986-.22998.70996-.44019 1.04993-.65991 3.54993 1.83984 6.82996 4.21973 9.67004 7.03979Z"></path>
      <path fill="#7c4b33" d="m292.80377,159.93118l-35.80005,64.95996-18.19995,33.04004c-32,52-83,4-58.28003-32.53003l25.80005-42.03992,3.97998-6.4801,5.31995-8.65991,27.18005-44.29004c25-33,72-5,50,36Z"></path>
      <path fill="#112e5b" d="m292.80377,159.93118l-35.80005,64.95996-50.67993-41.52991,3.97998-6.4801,5.31995-8.65991,27.18005-44.29004c25-33,72-5,50,36Z"></path>
      <polygon fill="#f2f2f2" points="249.134 198.201 242.464 205.651 210.304 176.881 215.624 168.221 249.134 198.201"></polygon>
      <path fill="#7c4b33" d="m97.3,276.79898l83.22589-51.39288c39.27411-20.47729,72.27411,17.52271,39.94748,51.39288l-91.67337,44.12982c-43,24-67-24-31.5-44.12982Z"></path>
      <path fill="#7c4b33" d="m106.13405,273.56524l-51.81223,18.13113c-2.28553.7998-4.24842,2.32219-5.5917,4.33687l-2.93011,4.39463-24,29.50092,50.43159,30.75279,64.47356-43.55818c25.09485-26.19461,5.09485-56.19461-30.57111-43.55817Z"></path>
      <path d="m267.89444,75.0837c-2.80352-.59755-5.67555-1.32324-7.99037-3.02954-8.82725-6.50673-.48055-12.51891-1.6949-14.84344-5.2226-9.99721.23387-10.19878,2.1217-10.73941-4.18388-7.65137-6.75344-20.81574,6.02394-27.24116-.33494-.93792.95487-12.54426,14.95742-12.36489,6.04981-9.8288,15.59855-4.03915,15.59855-4.03915,0,0,11.45849-7.71955,17.01906,2.35792,2.07843-2.35792,10.4065-7.50153,14.49179,1.50185,14.32311-2.89483,14.32311,4.82472,13.92962,8.30817,1.41781-2.15851,14.7166,1.34127,10.38688,12.85576,4.67797.53667,7.64998,6.7438,5.16329,10.78369h0c8.71517,3.75529,2.98593,11.47483,2.98593,11.47483,3.8195,7.71955-2.14292,10.82218-4.21004,11.51649,4.21004,7.78238-3.42895,16.46687-13.93257,14.53698-5.72924,4.82472-10.05578,1.8077-13.97164,1.44633-11.90159-1.09832-24.69576-.17192-35.70874,4.75831-3.70942,1.66062-6.47795,1.84393-10.71,1.26144-12.18006-1.67642-11.37361-7.88637-14.45993-8.54419Z"></path>
      <polygon fill="#ffcc83" points="203.8 346.929 203.8 554.143 203.8 737.929 293.8 742.929 298.504 571.865 323.121 344.38 203.8 346.929"></polygon>
      <polygon fill="#ffcc83" points="263.46 346.929 299.475 562.895 340.8 747.929 425.42 747.929 421.8 543.929 433.394 346.929 263.46 346.929"></polygon>
      <path fill="#112e5b" d="m254.35274,113.52025s39.74224-31.94202,96.09475-12.76673c56.35251,19.17528,63.35251,49.17528,67.35251,87.17528s15.59439,159,15.59439,159h-229.59439l50.55274-233.40855Z"></path>
      <path fill="#b8c2d8" d="m314.78828,357.76327l-14.97656-.85156c.0332-.56934,3.34961-57.59375,13.03516-114.12646,5.73438-33.47363,12.56738-60.32617,20.30762-79.81201,10.78125-27.13965,23.47559-40.62158,38.81055-41.21533l.58008,14.98828c-8.4043.32617-17.44238,11.60693-25.4502,31.76465-7.35645,18.51855-13.90527,44.36035-19.46387,76.80762-9.54395,55.70703-12.81152,111.88379-12.84277,112.44482Z"></path>
      <path fill="#f2f2f2" d="m289.74689,119.33911l11.9069-24.0912c.43048-.87098-.39416-1.83268-1.32062-1.54012l-16.02257,5.05976c-.3224.10181-.58027.34589-.69964.66221l-16.94724,44.91019c-.4533,1.20124,1.16448,2.07657,1.92202,1.03994l14.1529-19.36712c.04082-.05586.08681-.10776.13736-.155l6.6353-6.20163c.09697-.09064.17679-.19803.2356-.31703Z"></path>
      <path fill="#7c4b33" d="m350.44367,100.75125s-10,21.70996-42.1499,27.54004c-32.14014,5.82996-16.69006-16.68005-16.69006-16.68005l5.75-12.55005,3.82996-8.35999,24.78003-19.28003,3.63-2.81995c-.80994,11.84998,20.84998,32.15002,20.84998,32.15002Z"></path>
      <path d="m325.96368,71.42117s-.15991,28.33008-20.37,32.55005c-5.44006,1.13-7.75-1.07007-8.23999-4.91003l3.82996-8.35999,24.78003-19.28003Z"></path>
      <path fill="#7c4b33" d="m340.19581,62.77831c-2.16349-3.02058-5.66753-4.57487-9.37085-4.55752-3.05316-15.73916-14.32532-24.57823-28.11721-23.22295-14.93006,1.46713-27.15094,14.31826-25.35777,32.56617,1.79316,18.24786,5.08734,32.85983,20.01745,31.39269,8.36055-.82156,18.59478-6.51258,25.66961-14.56464,4.81108-.36466,10.14562-2.20462,13.33633-4.48996,5.87224-4.20603,7.58366-11.87262,3.82245-17.1238Z"></path>
      <path d="m337.58356,72.82791c-1.82617-3.05957-4.59375-5.6084-7.7959-7.17676l.4707-.95898c3.38477,1.6582,6.31152,4.35352,8.24121,7.58887l-.91602.54688Z"></path>
      <path fill="#fff" d="m335.27523,68.96112l-1.55526,4.82493"></path>
      <polygon points="334.228 73.95 333.212 73.622 334.767 68.797 335.783 69.125 334.228 73.95"></polygon>
      <ellipse cx="303.694" cy="63.567" rx="1.698" ry="2.368" transform="rotate(-5.612 303.694 63.567)"></ellipse>
      <ellipse cx="286.086" cy="64.726" rx="1.698" ry="2.368" transform="rotate(-5.612 286.085 64.726)"></ellipse>
      <path d="m287.72223 76.80252-.47656-.95508c2.7334-1.3623 4.85449-3.80566 5.81934-6.70312.9668-2.89551.73535-6.12305-.63281-8.85352l.95508-.47852c1.49414 2.98242 1.74609 6.50684.69141 9.66992-1.05469 3.16406-3.37109 5.83203-6.35645 7.32031ZM295.49957 84.13845l-.14258-1.05859c4.30176-.57617 8.20898-3.87207 9.50098-8.0166l1.01953.31836c-1.43359 4.59863-5.60449 8.11719-10.37793 8.75684Z"></path>
      <path d="m295.38239,99.5906c-2.19141,0-4.18066-.375-5.93359-1.12012l.41797-.98242c2.11621.89941,4.61914,1.21387,7.44922.9375,8.30078-.81543,18.47656-6.59668,25.31934-14.38574l.14355-.16309.21777-.0166c4.6377-.35254,9.88867-2.11719,13.06641-4.3916,5.62305-4.02832,7.28223-11.37598,3.69922-16.37988-1.97461-2.75684-5.20801-4.33398-8.87793-4.33398h-.05762l-.44141.00195-.08496-.43457c-2.94727-15.2002-13.76172-24.13867-27.54102-22.79297l-.10352-1.0625c14.2373-1.4082,25.42773,7.7041,28.60742,23.22461,3.8623.10645,7.25781,1.83105,9.36621,4.77637,3.92676,5.48242,2.15723,13.49805-3.94531,17.86816-3.27246,2.34375-8.62695,4.16797-13.38965,4.57129-7.1123,8.01758-17.24707,13.7334-25.875,14.58105-.69629.06836-1.37598.10254-2.03711.10254Z"></path>
      <path d="m294.90782,40.1181c-.24203,2.28385,1.53451,4.61244,4.11283,5.39086s5.72338-.06432,7.281-1.951c.05655,5.59956,5.72204,10.76967,12.38628,11.30326-.43411,3.5213,5.00501,5.72149,9.1196,4.89294,6.53717-1.31639,10.64678-7.43802,9.90665-13.02806-.74014-5.59004-5.45169-10.40725-11.20567-13.31721-5.75397-2.90996-12.47079-4.17084-19.11404-5.04067-8.83168-1.15637-17.18178-.89864-23.39388,5.09462-3.00879,2.9028-9.01612,8.68619-6.66892,12.94281,1.31204-.38899,2.02326-1.60735,2.58574-2.71205,2.94192.50664,14.55012.5791,14.9904-3.57549Z"></path>
      <path fill="#7c4b33" d="m398.80377,207.93118l-68.76001,66.3501-7.38013,7.11987-7.09985,6.8501-30.76001,29.67993c-45,33-107-33-52-77l35.91992-30.79004,6.88-5.8999,7.70007-6.59009,61.5-52.71997c40-27,90,20,54,63Z"></path>
      <path fill="#112e5b" d="m398.80377,207.93118l-68.76001,66.3501-7.38013,7.11987-7.09985,6.8501-46.84009-78.11011,6.88-5.8999,7.70007-6.59009,61.5-52.71997c40-27,90,20,54,63Z"></path>
      <polygon fill="#f2f2f2" points="330.044 274.281 322.664 281.401 275.604 204.241 283.304 197.651 330.044 274.281"></polygon>
      <path fill="#7c4b33" d="m118.8,366.9288l150-41c51-26,18.64086-102.51767-36-85l-145,61c-41.55674,13.63955-16.6364,78.44521,31,65Z"></path>
      <path fill="#7c4b33" d="m127.8,362.9288l-58.56982,28.80483c-1.80859.88947-3.84568,1.19257-5.83233.85292-4.55027-.77794-12.20892-3.32413-13.59786-11.65774,0,0-14,0-15-12,0,0-19,3-22-11,0,0-20-8-10-20,14.2144-17.05728,94.90607-40.48206,94.90607-40.48206,40.09393-10.51794,65.09393,40.48206,30.09393,65.48206Z"></path>
      <path fill="#7c4b33" d="m84.522,303.82454l-52.15916,6.3559c-4.41764.53832-7.95115,3.92535-8.67589,8.31626l-1.88694,11.4321,62.722-26.10426Z"></path>
      <path d="m26.49762,323.92459l-.39453-.99219c30.84863-12.26758,54.08594-20.77734,71.04004-26.01367l.31445,1.01953c-16.92676,5.22852-40.1377,13.72852-70.95996,25.98633Z"></path>
      <polygon points="13.502 357.923 13.099 356.934 45.099 343.934 45.502 344.923 13.502 357.923"></polygon>
      <polygon points="34.495 368.926 34.106 367.931 57.106 358.931 57.495 359.926 34.495 368.926"></polygon>
      <polygon points="50.51 381.919 50.09 380.938 64.09 374.938 64.51 375.919 50.51 381.919"></polygon>
      <polygon points="43.352 308.96 43.249 307.897 74.249 304.897 74.352 305.96 43.352 308.96"></polygon>
      <polygon points="124.508 286.921 124.092 285.936 233.016 239.969 301.954 181.022 302.647 181.835 233.585 240.888 233.508 240.921 124.508 286.921"></polygon>
      <path fill="#b8c2d8" d="m203.8,346.9288"></path>
      <path fill="#f2f2f2" d="m287.11182,122.63736l12.93883,33.73096c.82934,2.16206,3.59682,2.77564,5.26223,1.16668l53.04519-51.24705c1.32864-1.28361,1.31263-3.41787-.03513-4.68139l-11.84108-11.10101c-1.00632-.94342-2.50054-1.14404-3.72006-.49946l-54.14295,28.6171c-1.44559.76406-2.09263,2.48754-1.50704,4.01417Z"></path>
      <path fill="#b8c2d8" d="m461.96939,466.5161l-144.42974,14.19266c-13.15683,1.29288-24.87064-8.32475-26.16352-21.48159l-8.22711-83.72214c-1.29288-13.15683,8.32475-24.87064,21.48159-26.16352l144.42974-14.19266c13.15683-1.29288,24.87064,8.32475,26.16352,21.48159l8.22711,83.72214c1.29288,13.15683-8.32475,24.87064-21.48159,26.16352Z"></path>
      <polygon points="291.385 459.665 283.073 375.073 284.135 374.97 292.448 459.561 291.385 459.665"></polygon>
      <path d="m311.41657,474.8074c-10.4082-.53027-12.95605-15.16895-13.05957-15.79102-.05176-.61328-4.61914-57.10156-7.72852-78.63281-1.28125-8.875-.27344-15.49023,2.99414-19.66016,2.77148-3.53516,6.13574-3.90332,6.27832-3.91699l.10547,1.0625c-.03027.00293-3.08496.35645-5.56543,3.54199-3.02051,3.87891-3.97363,10.38672-2.75586,18.82031,3.11426,21.56348,7.68457,78.08594,7.73047,78.6543.01855.09961,2.50586,14.36914,12.05566,14.85547l-.05469,1.06641Z"></path>
      <polygon points="299.412 413.191 299.308 412.129 472.474 395.113 472.578 396.176 299.412 413.191"></polygon>
      <path fill="#f2f2f2" d="m406.50245,412.68248l-21.1508,2.07842c-4.32766.42527-8.18067-2.73825-8.60593-7.06591l-.2203-2.24187c-.42527-4.32766,2.73825-8.18067,7.06591-8.60593l21.1508-2.07842c4.32766-.42527,8.18067,2.73825,8.60593,7.06591l.2203,2.24187c.42527,4.32766-2.73825,8.18067-7.06591,8.60593Z"></path>
      <path fill="#b8c2d8" d="m432.8166,336.93026c-.03418-.51855-3.59766-52.48096-13.6543-103.44189-12.24902-62.06787-29.21094-97.33545-46.6543-96.74072l-.50586-14.99121c26.99023-.92676,47.26758,34.72461,61.90039,108.94971,10.23047,51.89258,13.8457,104.69434,13.88086,105.22119l-14.9668,1.00293Z"></path>
      <path d="m329.26715,698.74197l-30.31348-135.73047c-.22754-1.39551-22.22852-136.74414-26.47559-158.75781-4.17676-21.65723-24.09082-26.25977-24.29199-26.30371l.22754-1.04297c.20801.04492,20.7998,4.78125,25.11328,27.14355,4.25,22.0293,26.25293,157.39453,26.47559,158.75879l30.30762,135.7002-1.04297.23242Z"></path>
      <rect width="162" height="1.068" x="263.3" y="826.894"></rect>
      <rect width="90" height="1.068" x="158.3" y="811.894"></rect>
      <path d="m447.25153,335.96267c-.03516-.52539-3.62305-53.16699-13.87207-105.15332-6.40918-32.50684-14.03711-57.9668-22.6709-75.67285l.95898-.46875c8.6748,17.78906,16.33203,43.33691,22.75879,75.93457,10.2627,52.05371,13.85547,104.76367,13.88965,105.29004l-1.06445.07031Z"></path>
      <polygon points="299.801 156.619 286.801 122.619 287.799 122.238 300.799 156.238 299.801 156.619"></polygon>
      <polygon points="226.823 243.539 225.778 243.318 248.778 134.318 249.823 134.539 226.823 243.539"></polygon>
    </symbol>
  </defs>
  <use xlink:href="#a" width="676.719" height="520.3" transform="translate(154 114.907)scale(1.35802)"></use>
  <use xlink:href="#b" width="615.919" height="788.5" transform="translate(154.9 204.757)scale(.90144)"></use>
  <use xlink:href="#c" width="483.567" height="827.963" transform="translate(603.754 166)scale(.90213)"></use>
  <use xlink:href="#d" width="236.666" height="213.5" transform="translate(486 79.877)scale(1.07324)"></use>
</svg>
