<svg xmlns="http://www.w3.org/2000/svg" viewBox="-1.2 -.49 645.526 846.11"><rect width="382" height="479" x="-.7" y="-.49" fill="#f2f2f2"/><rect width="87" height="19" x="217.3" y="73.51" fill="#f90065" transform="rotate(90 260.805 83.005)"/><rect width="87" height="19" x="274.3" y="73.51" fill="#112e5b" transform="rotate(90 317.805 83.005)"/><rect width="54" height="19" x="261.8" y="90.01" fill="#ffcc83" transform="rotate(90 288.805 99.505)"/><rect width="67" height="19" x="313.3" y="83.51" fill="#b8c2d8" transform="rotate(90 346.805 93.005)"/><rect width="189" height="19" x="28.3" y="29.51" fill="#b8c2d8"/><rect width="154.64" height="19" x="28.3" y="56.51" fill="#b8c2d8"/><rect width="154.64" height="19" x="28.3" y="83.51" fill="#b8c2d8"/><rect width="147" height="19" x="28.3" y="177.51" fill="#112e5b"/><rect width="85" height="19" x="28.3" y="208.51" fill="#b8c2d8"/><rect width="114" height="19" x="28.3" y="381.51" fill="#f90065"/><rect width="92" height="9" x="29.3" y="411.51" fill="#b8c2d8"/><rect width="71" height="9" x="29.3" y="426.51" fill="#b8c2d8"/><rect width="54" height="9" x="29.3" y="441.51" fill="#b8c2d8"/><rect width="68" height="9" x="175.3" y="411.51" fill="#b8c2d8"/><rect width="71" height="9" x="175.3" y="426.51" fill="#b8c2d8"/><rect width="54" height="9" x="175.3" y="441.51" fill="#b8c2d8"/><rect width="114" height="19" x="173.3" y="381.51" fill="#ffcc83"/><polygon fill="#f90065" points="121.54 348.44 75.3 303.21 62.36 315.77 36.85 298.52 37.41 297.69 62.25 314.48 75.31 301.81 121.06 346.58 149.09 254.44 184.57 280.5 205.19 226.87 246.47 241.74 246.13 242.68 205.77 228.15 185.04 282.08 149.64 256.09 121.54 348.44"/><polygon fill="#ffcc83" points="69.24 361.1 43.86 324.23 40.29 340.12 39.32 339.9 43.39 321.78 68.97 358.94 92.5 294.44 138.58 326.9 180.32 256.98 232.99 261.78 232.9 262.78 180.86 258.04 138.88 328.34 92.99 296.01 69.24 361.1"/><rect width="254" height="1.07" x="-1.2" y="477.47"/><path fill="#ff9996" d="m462.3,671.51l-27,69s-11,23,12,38c18.85,12.29,54.26,16.84,64.22,31.36,2.51,3.66-.12,8.64-4.56,8.64h-147.96l40.3-150,63,3Z"/><path fill="#112e5b" d="m479.13,792.07s-1.83,11.44-15.83,11.44-88-3-88-3l-4,21,137.09.67c8.06-.26,12-9.94,6.41-15.75h0c-6.8-7.07-15.79-11.64-25.5-12.97l-10.16-1.39Z"/><path fill="#ff9996" d="m408.47,675.76s-11.16,52.75-9.16,63.75,12,72-15,86-46,13-67,7-10-32,5-54,22-40,23-49c1-9,4.5-53.75,4.5-53.75h58.66Z"/><path fill="#112e5b" d="m486.83,356.77h50.12l-5.78,183.35c-.56,17.91-6.05,35.32-15.86,50.32l-53,81.07s-29.84,13.25-56,2l53.42-316.74h27.11Z"/><path fill="#112e5b" d="m349.81,416.01v259.75s30.82,9.25,58.66,0l27.88-92.15,50.48-226.84h-137.02v59.24Z"/><path fill="#f2f2f2" d="m338.3,338.51l-13.28,76.37c-1.56,8.98-.37,15.74,8.28,18.63l22,5s0-71,6.65-70.62c7.61.43,19.01,48.35,22.98,66.1.89,4,4.18,7.01,8.24,7.54,17.57,2.3,67.99,6.93,138.45-3.09,10.39-1.48,17.73-10.95,16.5-21.38l-10.82-91.56-199,13Z"/><path fill="#ffcc83" d="m488.64,111.54s7.67-25.03,1.67-33.03-9.62-2.68-15.31-6.84c-5.69-4.16-18.19-11.29-24.69-10.16s-17.09,4.16-31.54,26.08c-14.46,21.92-15.98,15.08-24.17,23.95s1.71,19.97-3.29,23.97-18,8-18,19-2,23-2,23l106.8-36.55,10.53-29.43Z"/><path fill="#f90065" d="m349.81,169.98s14.48-8.19,32.99-10.83,109.38,2.48,109.38,2.48c0,0,21.14-1.12,24.14,21.88s23,164,23,164h-203l13.5-177.53Z"/><path fill="#f2f2f2" d="m381.3,159.51l25-6s34,16,51,11,6.07-23.02,32-8-9,52-29,54c-35.05,3.51-75-30-79-51Z"/><path fill="#ff9996" d="m456.27,168.59c-32.67-.34-46.18-20.06-46.18-20.06,0,0,17.94-23.65,15.16-35.2l12.28,6.59,19.44,10.43,10.15,14.88,2.8,4.11s19.02,19.6-13.65,19.25Z"/><path d="m467.12,145.23c-.3,3.13-2.37,5.11-7.27,4.93-20.63-.76-25.55-28.66-25.55-28.66l3.23-1.58,19.44,10.43,10.15,14.88Z"/><polygon fill="#f2f2f2" points="399.3 156.51 411.87 140.96 451.3 165.51 445.3 193.51 399.3 156.51"/><polygon fill="#f2f2f2" points="466.3 186.51 451.3 165.51 467.66 146.02 475.3 155.51 466.3 186.51"/><polygon points="467.03 187.2 451.38 166.33 452.23 165.69 466.58 184.82 471.86 165.46 472.89 165.74 467.03 187.2"/><polygon points="446.14 194.97 408.13 164.29 408.8 163.46 445.46 193.05 451.28 165.9 452.33 166.12 446.14 194.97"/><rect width="19.06" height="1.07" x="452" y="152.79" transform="rotate(-50.01 461.496 153.329)"/><rect width="1.07" height="31.72" x="424.8" y="133.48" transform="rotate(-58.1 425.318 149.35)"/><path fill="#ffcc83" d="m475.43,171.38c2.75,4.84,1.24,10.84.93,16.39-.8,14.44,8.16,28.93,21.44,34.67.04-2.12,2.08-3.64,4.08-4.35s4.2-.99,5.9-2.25c2.02-1.5,2.93-4.16,2.86-6.68s-.95-4.94-1.93-7.26c-2.41-5.72-5.41-11.19-7.47-17.05s-3.15-12.27-1.58-18.28c.87-3.32,2.53-6.45,2.91-9.86.54-4.75,2.74-11.22-10.26-24.22-4.75-4.75-5.59-12.47-4-19,.96-3.95,3.04-10.27,1.07-13.83-2.15-3.88-7.82-4.42-11.8-2.46-11.08,5.47-10.38,20.19-11.67,30.51s-4.8,17.51-1.58,27.47c2.27,7,7.68,10.17,11.1,16.19Z"/><path d="m469.3,211.51s4-10,11-11,15.34,11,15.34,11h-26.34Z"/><path fill="#ff9996" d="m421.9,98.23c2.62-2.63,6.33-3.61,9.98-2.99,5.54-15.04,18.09-21.96,31.48-18.41,14.5,3.85,24.5,18.49,19.8,36.22s-10.3,31.62-24.8,27.77c-8.12-2.15-17.31-9.41-23-18.5-4.69-1.13-9.66-3.81-12.44-6.57-5.12-5.09-5.58-12.94-1.02-17.52Z"/><path d="m422.86,108.56l-.82-.69c2.43-2.88,5.75-5.07,9.35-6.17l.31,1.02c-3.41,1.03-6.55,3.1-8.85,5.83Z"/><path fill="#fff" d="m425.76,105.12l.76,5.01"/><rect width="1.07" height="5.07" x="425.61" y="105.09" transform="rotate(-8.62 426.1 107.64)"/><ellipse cx="457.8" cy="104.87" rx="2.37" ry="1.7" transform="rotate(-75.15 457.785 104.872)"/><ellipse cx="474.99" cy="108.84" rx="2.37" ry="1.7" transform="rotate(-75.15 474.973 108.848)"/><path d="M471.44 120.49c-2.71-1.95-4.57-4.95-5.1-8.25-.53-3.29.28-6.73 2.24-9.43l.87.62c-1.79 2.48-2.53 5.62-2.05 8.64.49 3.01 2.19 5.77 4.67 7.55l-.62.87zM462.58 126.49c-4.61-1.4-8.16-5.54-8.84-10.31l1.06-.15c.61 4.3 3.94 8.18 8.09 9.44l-.31 1.02z"/><path d="m462.73,141.99c-1.42-.02-2.94-.24-4.51-.66-8.38-2.22-17.46-9.49-23.2-18.55-4.64-1.16-9.63-3.82-12.48-6.66-2.57-2.56-4.1-5.86-4.3-9.3-.2-3.46.96-6.65,3.27-8.97,2.56-2.57,6.18-3.73,10.01-3.21,5.63-14.81,18.14-22,31.97-18.33l-.27,1.03c-13.39-3.55-25.49,3.54-30.84,18.08l-.15.42-.44-.07c-3.64-.61-7.11.43-9.51,2.84-2.09,2.11-3.15,5-2.96,8.16.19,3.18,1.6,6.23,3.98,8.6,2.77,2.76,7.67,5.34,12.19,6.43l.21.05.12.18c5.5,8.79,14.62,16.13,22.68,18.27,1.49.39,2.92.6,4.25.62l-.02,1.07Z"/><path fill="#ffcc83" d="m425.76,94.71s9.54-1.2,17.54,8.8c0,0,16.99-10.6,14.5-24.3,0,0,13.5,18.3,28.5,16.3,0,0-6.55-20.5-21-23s-32.08-.59-39.54,22.2Z"/><path d="M386.88 157.52l-1.05-.17c1.12-6.81 4.82-13.25 10.13-17.65 1.3-1.08 2.73-2.09 4.12-3.07 3.88-2.74 7.89-5.57 9.09-9.97.78-2.86.21-5.93-.35-8.91-.17-.92-.35-1.85-.48-2.77-.37-2.5-.77-8.62 3.46-11.43l.59.89c-3.72 2.47-3.33 8.09-3 10.39.13.9.3 1.81.47 2.73.58 3.09 1.18 6.29.33 9.38-1.3 4.77-5.47 7.72-9.5 10.56-1.37.97-2.79 1.97-4.05 3.02-5.12 4.25-8.68 10.45-9.76 17.01zM493.93 206.37l-.74-.77c2.25-2.15 2.28-5.86 1.3-8.58-.83-2.31-2.3-4.39-3.72-6.4-.43-.61-.86-1.22-1.28-1.84-1.53-2.27-3.53-5.72-3.28-9.41.19-2.81 1.62-5.29 3-7.68.24-.42.48-.83.71-1.25 2-3.58 2.55-6.32 1.74-8.62-.79-2.25-2.76-3.73-4.85-5.29-.74-.55-1.5-1.13-2.21-1.73-5.85-5.06-7.9-13.9-4.86-21.02l.98.42c-2.86 6.7-.94 15.03 4.58 19.79.67.58 1.42 1.14 2.15 1.69 2.12 1.59 4.32 3.23 5.22 5.79 1.21 3.43-.46 7.06-1.82 9.5-.23.42-.48.84-.72 1.26-1.32 2.29-2.68 4.65-2.86 7.22-.23 3.36 1.66 6.6 3.1 8.74.41.61.84 1.22 1.27 1.82 1.46 2.07 2.97 4.21 3.85 6.65 1.02 2.83 1.22 7.07-1.56 9.72zM478.85 169.54l-1.03-.3c1.37-4.75.91-10.02-1.26-14.46-.48-.99-1.06-1.96-1.61-2.89-.7-1.17-1.42-2.38-1.98-3.67-1.25-2.83-1.4-5.55-.44-7.66l.97.44c-1.13 2.47-.21 5.32.44 6.79.54 1.22 1.24 2.41 1.92 3.55.57.96 1.15 1.95 1.66 2.97 2.29 4.68 2.77 10.23 1.33 15.23z"/><path fill="#f90065" d="m257.3,295.51s67.19-118.55,98.09-128.27c30.91-9.73,47.91,45.27,33.91,70.27-14,25-70,126-94,130-24,4-67-24-38-72Z"/><path fill="#f90065" d="m273.3,364.51c-14.23-5.69-46.29-48.12-66.14-75.85-9.97-13.93-16.86-24.15-16.86-24.15l42.29-42.06s7.21,6.26,17.33,15.94c22.25,21.28,58.57,59.06,63.38,83.12,7,35-10,55-40,43Z"/><path fill="#f2f2f2" d="m249.92,238.39c-7.49,27.75-27.9,42.76-42.76,50.27-9.97-13.93-16.86-24.15-16.86-24.15l42.29-42.06s7.21,6.26,17.33,15.94Z"/><path fill="#f90065" d="m506.1,165.6s30.2,12.91,42.2,37.91,81.35,128.57,81.35,128.57l-100.35-16.57-23.2-149.91Z"/><path fill="#112e5b" d="m402.1,760.88s-7.79,41.63-43.79,54.63-48-18-41-29-26.1,30.17-7,50c19.1,19.83,69,3,78-10,4.02-5.81,17.59-19.26,13.79-65.63Z"/><path d="m148.8,36.51h0c2.48,0,4.5,2.02,4.5,4.5v183.5h-9V41.01c0-2.48,2.02-4.5,4.5-4.5Z" transform="rotate(-19.07 148.806 130.497)"/><path d="M355.22 439.04c-.1-.01-9.67-1.54-22.06-5.01-5.34-1.49-8.52-5.32-9.21-11.08-.51-4.27.52-8.05.56-8.21l10.77-67.81 2-23.96 1.06.09-2 24-10.79 67.91c-.02.1-1.04 3.81-.54 7.88.65 5.35 3.49 8.76 8.44 10.15 12.33 3.45 21.84 4.97 21.94 4.99l-.17 1.05zM304.48 302.38c-19.59-32.46-71.73-79.07-72.25-79.54l.71-.8c.53.47 52.78 47.19 72.46 79.78l-.91.55z"/><path d="M308.1 360.39l-.77-.74c.43-.45 43.45-45.79 78.55-117.11l.96.47c-35.18 71.49-78.31 116.93-78.74 117.38zM429.92 206.47c-23.18-10.39-35.3-22.55-41.38-30.92-6.62-9.11-7.72-15.68-7.76-15.96l1.05-.17c.04.26 4.68 26.41 48.52 46.07l-.44.97z"/><path fill="#ff9996" d="m190.3,264.51s10,4,28-15c18-19,12.91-25.69,12.91-25.69l-11.26-30.91c-1.45-3.98-3.69-7.61-6.58-10.71-8.02-8.58-20.86-24.96-29.07-28.69-11-5-21,1-48,2-6.67.25-5.03,19.5,22,21,18,1,23,11,23,11,0,0-9,25,3,46l-16.5,15.5,22.5,15.5Z"/><path fill="#ff9996" d="m155.3,227.51s-6,3-2,12,9.98,10.71,9.98,10.71c0,0,14.26,0,20.64-11.36s-5.32-11.36-5.32-11.36l-12.04,3.88-11.27-3.88Z"/><path fill="#ff9996" d="m150.48,207.79s-6.17,10.72-1.17,18.72,18,8,18,8c0,0,13.33,2.79,18.17-7.1,0,0,2.47-12.51-6.17-11.9s-28.83-7.72-28.83-7.72Z"/><path fill="#ff9996" d="m144.3,187.51s-5,15.57,0,20.28,18.98,9.42,18.98,9.42c0,0,16.02,3.29,22.02-3.71s-2.76-13.79-2.76-13.79l-38.24-12.21Z"/><path fill="#ff9996" d="m146.3,173.51s-11,12-1,20,17,9,17,9c0,0,18.36,3,21.18,0s.82-22-8.18-24-29-5-29-5Z"/><path d="M183.84 233.77c-11.37-19.89-3.99-43.6-3.12-46.21-.8-1.35-6.36-9.63-22.45-10.52-14.08-.78-20.39-6.3-22.9-9.52-2.26-2.9-3.29-6.24-2.77-8.94l1.05.2c-.47 2.4.49 5.42 2.56 8.08 2.4 3.08 8.46 8.35 22.12 9.11 18.1 1.01 23.24 10.88 23.45 11.29l.1.2-.08.21c-.09.25-8.77 25.02 2.96 45.55l-.93.53zM169.6 249.83l-.27-1.03c4.48-1.16 10.58-3.86 14.13-10.19.74-1.31 1.26-2.53 1.55-3.62l1.03.28c-.31 1.18-.87 2.48-1.65 3.87-3.74 6.65-10.11 9.49-14.79 10.7z"/><path d="M171.59 218.53c-4.49 0-8.18-.74-8.41-.79-.64-.21-14.22-4.81-19.24-9.56l.73-.78c4.86 4.58 18.65 9.26 18.79 9.3.02 0 8.41 1.69 15.14-.02l.26 1.04c-2.39.61-4.94.81-7.27.81zM176.76 204.38c-6.26 0-14.45-1.33-14.54-1.34-.28-.04-7.25-1.11-17.25-9.11l.67-.83c9.75 7.8 16.67 8.88 16.74 8.89.1.02 9.56 1.54 15.82 1.3l.04 1.07c-.48.02-.97.03-1.48.03zM171.52 235.42c-2.25 0-3.92-.31-4.27-.38-1.06 0-13.41-.28-18.4-8.25l.91-.57c4.79 7.66 17.42 7.75 17.55 7.75h.11c.1.03 9.59 1.93 15.16-3.44l.74.77c-3.52 3.4-8.34 4.12-11.79 4.12z"/><polygon points="408.98 675.92 407.95 675.61 437.29 576.92 466.28 447.89 467.32 448.13 438.32 577.19 408.98 675.92"/><path d="M383.66 597.96c-1.14 0-2.28-.05-3.42-.14l.09-1.06c12.92 1.09 26.27-4.26 34.86-13.97l.8.71c-8.05 9.1-20.18 14.47-32.33 14.47zM475.99 597.16l-.11-1.06c12.37-1.32 24.51-6.35 34.18-14.17l.67.83c-9.83 7.95-22.17 13.07-34.74 14.41zM401.17 799.05l-1.04-.24c1.91-8.38 2.14-18.8 2.1-28.82-.03-6.35-1-14.61-1.94-22.61-.69-5.83-1.34-11.35-1.57-15.76-.56-10.37 8.02-50.17 8.39-51.86l1.04.23c-.09.41-8.91 41.35-8.36 51.57.24 4.37.88 9.87 1.57 15.69.95 8.02 1.92 16.32 1.95 22.73.04 10.08-.19 20.58-2.12 29.07zM444.04 776.83c-10.9-8.2-12.99-20.67-11.31-29.61 1.44-7.65 27.96-73.13 29.08-75.92l.99.4c-.28.68-27.61 68.16-29.03 75.71-1.62 8.62.39 20.65 10.91 28.56l-.64.85z"/><rect width="1.07" height="48.95" x="543.97" y="361.99" transform="rotate(-6.74 544.454 386.428)"/><rect width="155.28" height="1.07" x="374.3" y="347.23" transform="rotate(-.21 452.274 347.333)"/><polygon fill="#ffcc83" points="538.32 372.22 418.32 372.22 469.3 211.51 589.3 211.51 538.32 372.22"/><path fill="#ff9996" d="m510.3,318.51l-17.71-17.11s-7.25-5.15-10.29-7.89c-10-9-3.83-18.81,2-15s31,17,31,17c0,0,19,24-5,23Z"/><path fill="#ff9996" d="m535.92,298.1l-19.72-23.59s-24.97-20.39-28.94-19.19-3.97,10.19.03,14.19,15,12,15,12c0,0,10.88,24.37,19.44,25.68s14.18-9.09,14.18-9.09Z"/><path fill="#ff9996" d="m529.58,295.63l-14.28-27.12s-20-14-18-22c0,0,5-12,23,7l27.96,33.04s-2.4,20.21-18.68,9.08Z"/><path d="M492.29 301.83c-.3-.21-7.32-5.2-10.34-7.92-6-5.4-6.59-11.53-4.08-14.8 1.67-2.16 4.37-2.58 6.72-1.04 2.19 1.43 7.37 4.35 15.38 8.68l-.51.94c-8.04-4.34-13.24-7.28-15.46-8.73-1.89-1.24-3.97-.92-5.29.8-1.79 2.33-2.22 7.81 3.94 13.36 2.98 2.68 10.17 7.8 10.25 7.85l-.62.87zM515 268.95c-.83-.58-20.28-14.31-18.21-22.57l1.04.26c-1.89 7.55 17.59 21.3 17.79 21.43l-.61.88zM501.99 281.94c-.45-.33-11.08-8.07-15.06-12.05-2.95-2.95-3.67-8.01-2.84-11.28.51-2.02 1.59-3.37 3.04-3.8.77-.24 3.15-.96 20.78 12.49l-.65.85c-15.94-12.16-19.2-12.5-19.82-12.31-1.07.32-1.89 1.4-2.31 3.04-.76 3.02-.01 7.69 2.56 10.26 3.92 3.92 14.83 11.87 14.94 11.95l-.63.86z"/><path fill="#f90065" d="m510.3,318.51l33-44s79.27,48.31,91,62c12,14,7,61-54,52-33.37-4.92-70-70-70-70Z"/><path fill="#f2f2f2" d="m469.3,211.51s3-14,16-14,86,3,86,3c0,0,40,1,38,63-1.45,44.95,25.49,62.85,33.98,67.36.79.42.61,1.59-.26,1.76-35.25,10.4-74.96,17.95-118.17,23.26,0,0-18.21,1.53-17.54-55.38s-15-124-38-89Z"/><rect width="139.78" height="1.07" x="378.41" y="277.98" transform="rotate(-72.1 448.27 278.512)"/><rect width="139.78" height="1.07" x="373.41" y="301.98" transform="rotate(-72.1 443.266 302.508)"/><rect width="96" height="1.07" x="442.8" y="371.48"/><path d="m524.91,356.42l-.13-1.06c44.72-5.49,84.45-13.32,118.09-23.25.31-.06.37-.29.38-.35,0-.07.02-.29-.21-.42-8.41-4.47-35.72-22.55-34.26-67.84.74-22.86-4.11-39.99-14.41-50.92-10.44-11.07-22.94-11.53-23.07-11.53l.03-1.07c.13,0,13.04.45,23.8,11.85,10.52,11.14,15.47,28.53,14.72,51.71-1.44,44.67,25.43,62.48,33.69,66.87.56.3.86.89.77,1.52-.09.63-.56,1.11-1.18,1.23-33.65,9.93-73.43,17.77-118.21,23.27Z"/><path d="m524.71,356.42c-.71,0-3.33-.21-6.36-3.03-5.5-5.12-11.98-18.45-11.58-52.89.51-43.68-8.65-93.4-23.09-97.82-4.39-1.34-9.08,1.73-13.93,9.12l-1.57,2.38.6-2.79c.03-.14,3.24-14.42,16.52-14.42,4.6,0,17.18.37,37.39,1.11l-.04,1.07c-20.19-.74-32.76-1.11-37.35-1.11-5.19,0-9.37,2.27-12.41,6.74-.81,1.19-1.43,2.39-1.89,3.44,4.42-5.64,8.78-7.84,13-6.56,4.97,1.52,12.1,8.79,17.83,34.8,4.08,18.51,6.27,41.86,6.01,64.05-.4,33.94,5.86,47.03,11.17,52.04,3.14,2.96,5.77,2.8,5.79,2.8l.09,1.06s-.08,0-.18,0Z"/><rect width="1.07" height="108.78" x="133.77" y="48.12" transform="rotate(-18.77 134.285 102.5)"/></svg>